<?xml version="1.0" standalone="no"?>
<!DOCTYPE svg PUBLIC "-//W3C//DTD SVG 20010904//EN"
 "http://www.w3.org/TR/2001/REC-SVG-20010904/DTD/svg10.dtd">
<svg version="1.0" xmlns="http://www.w3.org/2000/svg"
 width="600.000000pt" height="600.000000pt" viewBox="0 0 600.000000 600.000000"
 preserveAspectRatio="xMidYMid meet">
<g transform="translate(0.000000,600.000000) scale(0.100000,-0.100000)"
fill="#000000" stroke="none">
<path d="M2784 4161 c-146 -42 -268 -144 -332 -279 -28 -60 -33 -77 -24 -95 9
-19 11 -19 11 -4 1 10 6 15 11 12 7 -4 8 3 4 21 -4 16 -3 25 2 21 6 -3 11 4
11 15 3 39 25 79 40 74 8 -3 11 -2 8 3 -7 12 52 101 67 101 6 0 5 -7 -3 -17
-11 -15 -10 -14 9 1 24 21 29 31 10 20 -7 -3 1 5 17 20 17 14 36 25 43 26 8 0
10 5 6 12 -5 8 -2 9 9 5 10 -4 17 -2 17 5 0 7 4 7 14 -1 11 -9 16 -9 22 0 5 8
3 9 -6 4 -8 -5 -11 -4 -6 3 15 24 120 46 216 45 93 -1 105 -3 145 -17 55 -20
66 -27 60 -36 -4 -6 -11 -8 -16 -5 -5 3 -6 -1 -3 -10 6 -14 7 -14 18 0 14 20
66 11 66 -12 0 -8 5 -11 13 -7 6 4 -2 -7 -19 -23 -17 -16 -33 -36 -36 -44 -4
-12 -7 -12 -23 1 -10 8 -16 10 -12 4 3 -6 -15 0 -40 13 -26 12 -57 23 -69 23
-13 0 -25 4 -28 9 -3 5 -30 6 -58 3 -29 -3 -72 -6 -95 -7 -22 0 -39 -3 -37 -6
4 -7 -97 -55 -109 -51 -5 1 -6 -2 -2 -7 3 -6 -5 -15 -17 -22 -20 -11 -21 -10
-11 3 11 12 8 19 -14 39 -16 14 -21 16 -13 5 23 -30 20 -68 -9 -97 -53 -53
-100 -189 -92 -266 l2 -22 -41 20 c-22 11 -45 17 -50 14 -6 -3 -10 -1 -10 5 0
6 -8 9 -18 6 -9 -3 -31 -2 -48 3 -42 12 -166 -11 -226 -42 -26 -14 -44 -28
-40 -32 4 -5 -1 -5 -10 -2 -10 3 -20 1 -24 -5 -5 -7 -2 -8 7 -3 8 5 1 -5 -16
-22 -44 -45 -65 -74 -81 -110 -8 -18 -18 -33 -23 -33 -8 0 -15 -49 -25 -174
-3 -35 -1 -45 6 -35 7 10 8 9 3 -6 -4 -11 -9 -29 -10 -40 -2 -17 -2 -17 2 -1
4 14 13 3 34 -40 16 -32 37 -66 45 -75 9 -10 13 -23 9 -29 -3 -6 -3 -10 2 -9
20 4 27 -2 13 -12 -13 -9 -13 -10 2 -6 19 6 42 -15 30 -28 -4 -5 -2 -5 4 -2 7
4 15 0 18 -9 4 -10 12 -14 22 -10 11 4 15 2 11 -8 -4 -9 0 -12 11 -9 10 2 26
-4 37 -14 11 -10 29 -19 40 -20 11 -1 44 -4 73 -8 59 -7 86 5 130 56 13 16 26
28 30 26 4 -1 8 3 10 8 8 26 65 72 86 70 18 -2 23 2 21 19 -1 24 33 68 47 60
13 -8 40 17 34 32 -4 12 41 62 51 56 2 -2 8 0 11 4 4 4 1 4 -7 -1 -10 -6 -12
-4 -7 4 5 7 15 10 23 7 8 -4 11 -1 7 5 -8 14 35 59 50 53 7 -3 19 3 26 13 12
15 12 16 0 6 -26 -24 -34 -13 -10 12 22 24 30 26 97 23 40 -2 73 -6 73 -9 0
-14 -57 -56 -73 -54 -9 2 -15 -1 -11 -6 3 -5 11 -6 17 -3 7 4 -5 -11 -27 -34
-25 -26 -45 -39 -58 -37 -10 2 -16 0 -13 -6 4 -5 12 -6 18 -3 7 4 -5 -11 -27
-34 -25 -26 -45 -39 -58 -37 -10 2 -16 0 -13 -6 4 -5 12 -6 18 -2 17 10 -68
-83 -112 -122 -20 -18 -44 -31 -54 -29 -9 1 -15 -2 -11 -7 3 -5 11 -6 17 -3 7
4 -5 -11 -27 -34 -25 -26 -45 -39 -58 -37 -10 2 -16 0 -13 -6 4 -5 12 -6 18
-3 7 4 -10 -16 -38 -45 -47 -48 -52 -51 -100 -51 -74 0 -162 18 -223 46 -29
13 -57 24 -63 24 -6 0 -7 5 -4 10 4 6 11 7 17 4 7 -4 8 -2 4 4 -4 6 -14 8 -23
5 -12 -5 -14 -3 -8 7 6 9 4 11 -5 5 -9 -5 -22 2 -38 21 -13 16 -21 22 -16 14
5 -10 0 -9 -14 4 -12 10 -19 24 -15 30 3 6 3 8 -2 4 -8 -8 -65 64 -65 82 0 5
-4 10 -10 10 -5 0 -10 6 -10 13 0 6 -7 24 -15 40 -35 67 -43 254 -13 324 6 15
12 35 13 43 4 30 26 61 38 53 9 -5 8 -2 -1 9 -10 12 -9 18 3 28 13 11 15 10
10 -6 -3 -10 4 0 15 24 14 30 25 42 37 40 27 -4 42 9 36 32 -4 16 3 24 38 39
24 11 38 20 30 20 -13 1 -7 15 7 17 4 0 15 4 24 8 9 4 22 4 29 0 7 -4 9 -3 6
3 -8 13 88 47 113 40 11 -3 20 -1 20 5 0 5 32 7 80 4 44 -2 80 0 80 5 0 30
-184 22 -277 -12 -136 -50 -268 -184 -314 -318 -118 -351 139 -701 515 -701
l61 0 305 305 305 305 -110 0 -110 0 -230 -231 -230 -230 -48 6 c-159 20 -288
133 -323 284 -18 73 -17 114 1 186 59 224 314 338 523 235 l69 -35 -5 61 c-22
276 280 479 531 356 l63 -32 55 53 54 53 -40 26 c-132 84 -289 110 -431 69z
m-800 -542 c-3 -5 -10 -7 -15 -3 -5 3 -7 10 -3 15 3 5 10 7 15 3 5 -3 7 -10 3
-15z m641 -478 c-3 -6 -11 -11 -17 -11 -6 0 -6 6 2 15 14 17 26 13 15 -4z
m-80 -80 c-3 -6 -11 -11 -17 -11 -6 0 -6 6 2 15 14 17 26 13 15 -4z"/>
<path d="M3450 4039 c-124 -22 -233 -97 -281 -195 -20 -41 -24 -66 -26 -149
-2 -97 -2 -99 11 -55 19 66 39 100 88 146 77 74 169 106 303 105 143 -1 249
-46 346 -148 67 -70 103 -137 130 -241 23 -90 23 -125 4 -216 -18 -83 -45
-141 -96 -207 -22 -27 -35 -49 -30 -49 5 0 13 5 16 10 4 6 11 7 17 4 7 -4 8
-2 4 4 -4 7 -3 12 2 12 5 0 15 11 22 25 7 13 18 22 23 18 6 -4 7 -1 2 7 -4 7
-4 15 1 19 14 10 54 100 54 121 0 11 4 20 8 20 13 0 8 191 -7 250 -7 30 -22
71 -32 91 -11 20 -19 45 -19 55 0 14 -2 16 -9 6 -7 -11 -10 -10 -15 3 -3 9 -3
21 0 27 3 5 -3 12 -15 15 -19 5 -25 15 -22 36 0 4 -3 6 -8 5 -5 -2 -29 15 -53
37 -56 53 -96 78 -110 69 -7 -4 -8 -3 -4 4 5 8 -2 12 -19 12 -14 0 -24 4 -21
9 3 4 -18 12 -47 16 -75 11 -236 12 -230 1 4 -5 -10 -7 -31 -3 -25 4 -34 2
-30 -5 5 -8 1 -9 -10 -5 -9 4 -15 3 -12 -2 3 -5 -6 -14 -22 -20 -41 -17 -74
-38 -83 -52 -6 -10 -11 -10 -22 0 -12 9 -17 9 -23 0 -4 -7 -3 -9 4 -5 6 3 13
2 17 -4 3 -5 2 -10 -3 -10 -6 0 -20 -16 -31 -36 -12 -20 -24 -34 -27 -31 -9 8
18 107 27 101 4 -2 11 1 15 7 4 8 3 9 -4 5 -21 -13 -13 4 20 44 32 37 34 38
53 22 20 -17 20 -17 1 6 -17 20 -15 27 7 23 4 0 7 4 7 10 0 6 9 8 23 4 14 -4
18 -3 9 3 -11 7 -11 11 0 19 25 19 139 44 211 46 75 1 208 -24 255 -49 15 -8
33 -14 40 -14 6 0 12 -4 12 -10 0 -5 16 -16 35 -26 45 -21 125 -92 125 -110 0
-8 3 -13 8 -13 19 3 22 -3 12 -21 -6 -11 -7 -20 -3 -19 37 6 78 -38 75 -81 -1
-20 0 -22 9 -10 9 12 10 11 6 -8 -3 -14 -1 -20 5 -16 7 5 9 -2 4 -20 -4 -18
-3 -25 4 -21 5 3 10 4 10 1 0 -3 7 -31 15 -63 22 -83 28 -178 14 -242 -6 -31
-14 -60 -17 -66 -3 -5 -7 -20 -8 -33 -2 -13 -12 -39 -23 -58 -12 -19 -21 -40
-21 -45 0 -17 -52 -79 -61 -73 -5 3 -6 -2 -3 -10 7 -19 -45 -68 -65 -60 -10 3
-11 1 -3 -9 8 -10 6 -16 -11 -27 -20 -12 -21 -12 -9 3 11 12 11 17 0 23 -7 4
-10 4 -6 -1 12 -12 -29 -61 -62 -75 -16 -7 -30 -16 -30 -21 0 -5 -9 -9 -19 -9
-11 0 -23 -5 -26 -10 -4 -6 -11 -8 -16 -5 -5 4 -9 2 -9 -3 0 -10 -68 -28 -164
-42 -61 -10 -70 -9 -83 7 -8 10 -11 11 -7 3 5 -8 -12 5 -36 30 -25 25 -43 50
-41 55 2 6 1 7 -3 4 -9 -8 -83 63 -77 75 2 5 0 7 -5 5 -5 -2 -29 16 -54 41
-25 24 -40 41 -35 38 6 -4 12 3 12 15 2 17 0 18 -7 7 -9 -15 -9 -15 -85 54 -6
6 -5 6 2 2 9 -5 11 -2 7 8 -3 9 -11 14 -17 13 -7 -1 -11 7 -10 18 1 11 0 15
-3 9 -2 -6 -16 -9 -30 -6 -21 4 -39 -10 -110 -82 -49 -51 -89 -84 -96 -80 -6
4 -8 3 -4 -4 3 -6 -20 -36 -51 -67 -32 -32 -57 -62 -55 -69 2 -6 0 -8 -4 -4
-4 4 -21 -8 -39 -26 -23 -25 -35 -32 -43 -24 -8 8 -9 5 -5 -11 5 -21 3 -21
-73 -20 -44 1 -73 4 -66 6 6 3 10 8 7 13 -2 4 4 15 15 25 11 10 20 15 20 10 0
-4 13 8 29 28 15 20 32 33 35 29 4 -4 6 -2 4 4 -3 13 82 99 95 96 4 -1 7 2 7
8 0 15 50 61 61 55 5 -4 6 2 2 12 -3 10 -3 15 2 11 4 -4 20 8 35 27 15 19 31
31 34 27 4 -4 6 -2 4 4 -3 13 82 99 95 96 4 -1 7 2 7 7 0 5 16 26 35 47 19 21
35 34 35 29 0 -5 6 0 14 11 14 20 23 20 413 20 l398 -1 3 -38 c2 -22 -1 -52
-7 -68 -8 -23 -7 -28 2 -23 9 5 9 3 0 -7 -7 -7 -13 -20 -13 -29 0 -8 -7 -28
-15 -44 -8 -15 -12 -33 -8 -39 4 -6 1 -8 -8 -5 -10 4 -14 -3 -16 -21 l-1 -26
23 27 c31 36 63 137 71 226 l7 72 -424 0 -424 0 -305 -305 -305 -305 110 0
111 0 197 198 197 198 197 -199 198 -199 74 7 c41 3 106 17 145 31 81 28 182
86 179 102 -2 6 3 9 11 6 17 -7 127 112 166 179 56 97 83 199 84 317 1 162
-42 289 -139 413 -137 174 -386 273 -595 236z m595 -259 c3 -5 1 -10 -4 -10
-6 0 -11 5 -11 10 0 6 2 10 4 10 3 0 8 -4 11 -10z"/>
<path d="M2544 3940 c0 -13 4 -16 10 -10 7 7 7 13 0 20 -6 6 -10 3 -10 -10z"/>
<path d="M2564 3909 c-11 -18 11 -32 25 -16 9 12 8 16 -3 20 -9 4 -18 1 -22
-4z"/>
<path d="M4146 3737 c3 -10 9 -15 12 -12 3 3 0 11 -7 18 -10 9 -11 8 -5 -6z"/>
<path d="M2030 3590 c-9 -6 -10 -10 -3 -10 6 0 15 5 18 10 8 12 4 12 -15 0z"/>
<path d="M2145 3551 c-3 -5 -2 -12 3 -15 5 -3 9 1 9 9 0 17 -3 19 -12 6z"/>
<path d="M4061 3474 c0 -11 3 -14 6 -6 3 7 2 16 -1 19 -3 4 -6 -2 -5 -13z"/>
<path d="M4071 3334 c0 -11 3 -14 6 -6 3 7 2 16 -1 19 -3 4 -6 -2 -5 -13z"/>
<path d="M1932 3100 c0 -14 2 -19 5 -12 2 6 2 18 0 25 -3 6 -5 1 -5 -13z"/>
<path d="M3976 3067 c3 -10 9 -15 12 -12 3 3 0 11 -7 18 -10 9 -11 8 -5 -6z"/>
<path d="M4145 3069 c-4 -6 -5 -12 -2 -15 2 -3 7 2 10 11 7 17 1 20 -8 4z"/>
<path d="M2145 3031 c-3 -5 -2 -12 3 -15 5 -3 9 1 9 9 0 17 -3 19 -12 6z"/>
<path d="M2626 3028 c3 -5 10 -6 15 -3 13 9 11 12 -6 12 -8 0 -12 -4 -9 -9z"/>
<path d="M3310 3016 c0 -2 8 -10 18 -17 15 -13 16 -12 3 4 -13 16 -21 21 -21
13z"/>
<path d="M3390 2936 c0 -2 8 -10 18 -17 15 -13 16 -12 3 4 -13 16 -21 21 -21
13z"/>
<path d="M3470 2856 c0 -2 8 -10 18 -17 15 -13 16 -12 3 4 -13 16 -21 21 -21
13z"/>
<path d="M2763 2735 c0 -8 4 -12 9 -9 5 3 6 10 3 15 -9 13 -12 11 -12 -6z"/>
<path d="M3185 2611 c-3 -5 -2 -12 3 -15 5 -3 9 1 9 9 0 17 -3 19 -12 6z"/>
<path d="M1820 2375 l0 -235 51 0 52 0 -7 148 c-7 173 -7 173 -18 166 -4 -3
-8 -67 -8 -144 0 -112 -3 -139 -15 -143 -8 -4 -18 -1 -22 6 -4 7 -8 101 -9
210 l0 198 45 -3 c28 -2 47 -8 47 -15 1 -7 2 -20 3 -29 0 -9 6 -12 12 -8 8 5
10 -1 7 -19 -3 -15 -2 -24 2 -22 4 3 11 -14 14 -37 5 -28 10 -38 15 -30 5 9
12 -2 21 -33 9 -32 10 -49 2 -57 -7 -7 -12 -4 -17 11 -3 12 -11 19 -16 16 -5
-4 -9 0 -10 7 -2 35 -11 64 -26 80 -33 36 -28 19 56 -194 42 -106 42 -106 74
-104 32 2 33 5 94 157 l62 154 1 -157 0 -158 45 0 45 0 0 235 0 235 -59 0 -58
0 -31 -77 c-68 -175 -97 -243 -104 -243 -5 0 -8 6 -8 14 0 7 -26 78 -59 157
l-58 144 -62 3 -61 3 0 -236z m480 -1 l0 -204 -25 0 -25 0 0 133 c0 135 -6
162 -31 152 -14 -6 -49 -72 -49 -92 0 -6 -7 -16 -15 -23 -10 -8 -13 -21 -9
-33 4 -13 2 -17 -5 -13 -7 4 -11 -1 -11 -13 0 -32 -1 -34 -22 -64 -11 -15 -18
-34 -15 -41 3 -7 -1 -13 -9 -13 -8 0 -14 5 -14 11 0 6 -4 5 -9 -2 -5 -9 -12 2
-21 35 -8 26 -25 66 -38 88 -13 22 -19 34 -11 28 8 -8 17 -9 24 -3 7 6 17 -2
29 -24 17 -32 19 -33 35 -17 10 10 21 25 24 35 4 9 11 15 15 12 5 -3 8 5 8 17
-1 12 4 21 10 20 7 -1 10 6 7 17 -6 22 45 150 59 150 5 0 8 6 5 13 -10 27 10
43 52 39 l41 -4 0 -204z"/>
<path d="M2041 2244 c0 -11 3 -14 6 -6 3 7 2 16 -1 19 -3 4 -6 -2 -5 -13z"/>
<path d="M2410 2375 l0 -235 50 0 50 0 0 69 c0 39 5 73 11 76 6 4 8 14 5 22
-3 8 -2 11 3 8 6 -3 14 2 18 10 7 12 24 -8 73 -85 l65 -99 58 -1 c31 0 57 2
57 5 0 3 -17 29 -38 58 -20 29 -59 84 -86 124 l-49 72 73 88 c40 48 80 96 88
106 14 16 11 17 -44 17 l-59 0 -67 -83 c-36 -45 -76 -93 -87 -107 l-20 -25 -1
108 0 107 -50 0 -50 0 0 -235z m35 205 c-3 -5 -2 -10 4 -10 5 0 11 5 13 12 3
7 10 8 17 4 11 -7 11 -10 0 -17 -11 -7 -11 -9 -1 -9 9 0 12 -19 9 -77 -3 -80
9 -113 35 -96 7 4 16 8 20 8 3 0 10 4 15 9 5 5 2 6 -7 1 -8 -4 0 7 18 25 17
18 32 36 32 41 0 5 7 9 15 9 9 0 12 6 9 15 -4 8 1 17 10 21 9 3 16 12 16 20 0
8 5 14 11 14 5 0 7 -4 4 -10 -11 -18 1 -11 21 12 15 19 16 20 2 9 -11 -8 -18
-9 -18 -3 0 6 6 14 12 18 18 11 58 10 56 -1 -2 -6 -7 -9 -11 -7 -5 1 -6 -1 -3
-6 8 -13 -24 -53 -36 -46 -6 4 -8 2 -5 -3 4 -6 -1 -20 -11 -31 -9 -11 -23 -29
-30 -39 -11 -16 -12 -16 -3 3 7 15 7 21 -2 21 -13 0 -15 -8 -18 -67 -1 -16 -7
-26 -12 -23 -6 3 -7 1 -3 -6 4 -6 12 -9 17 -6 5 4 9 2 9 -4 0 -5 12 -23 26
-40 14 -17 22 -31 18 -31 -4 0 3 -9 16 -20 13 -11 19 -20 15 -20 -4 0 0 -9 9
-19 10 -11 15 -25 10 -32 -4 -7 -3 -10 2 -6 6 3 16 2 22 -2 10 -6 9 -11 -4
-22 -16 -12 -17 -12 -9 1 8 13 7 13 -9 0 -16 -13 -20 -12 -37 9 -11 13 -19 30
-19 38 0 8 -4 12 -9 8 -5 -3 -12 4 -16 15 -3 11 -11 20 -16 20 -6 0 -8 4 -4 9
7 12 -53 81 -70 81 -8 0 -22 -11 -33 -25 -11 -13 -21 -22 -24 -20 -5 5 -8 -22
-11 -89 -2 -49 -11 -62 -34 -48 -13 8 -23 422 -10 422 5 0 5 -4 2 -10z"/>
<path d="M2935 2591 c-54 -33 -70 -59 -70 -113 0 -45 4 -54 32 -77 18 -14 69
-37 114 -51 97 -30 130 -61 108 -101 -20 -38 -40 -48 -95 -49 -54 0 -104 27
-104 56 0 9 -11 14 -35 14 -41 0 -46 -18 -16 -66 26 -43 83 -68 157 -67 106 1
164 49 164 135 0 70 -31 99 -142 132 -47 15 -93 35 -102 44 -40 45 4 102 79
102 43 0 95 -29 95 -54 0 -7 15 -12 35 -13 39 -1 42 5 20 51 -33 70 -168 102
-240 57z m-5 -56 c-7 -8 -16 -15 -21 -15 -5 0 -1 8 9 18 20 22 31 19 12 -3z
m30 -144 c0 -5 -41 29 -57 48 -30 34 -10 30 22 -5 19 -21 35 -40 35 -43z m115
-21 c13 -6 15 -9 5 -9 -8 0 -22 4 -30 9 -18 12 -2 12 25 0z m45 -25 c11 -13
10 -14 -4 -9 -9 3 -16 10 -16 15 0 13 6 11 20 -6z m47 -78 c1 -29 1 -30 -8 -9
-5 13 -7 28 -3 33 8 14 9 12 11 -24z m-243 -66 c-5 -6 -34 20 -34 30 0 5 8 1
18 -8 10 -10 17 -20 16 -22z m230 21 c3 -5 -1 -9 -9 -9 -8 0 -12 4 -9 9 3 4 7
8 9 8 2 0 6 -4 9 -8z m-24 -26 c0 -11 -19 -15 -25 -6 -3 5 1 10 9 10 9 0 16
-2 16 -4z m-164 -18 c3 -4 -1 -5 -10 -4 -8 1 -18 5 -22 8 -3 4 1 5 10 4 8 -1
18 -5 22 -8z"/>
<path d="M3385 2593 c-81 -43 -118 -111 -118 -218 0 -149 76 -235 208 -235
128 0 204 88 205 235 0 75 -28 153 -66 187 -53 47 -170 63 -229 31z m-5 -37
c0 -2 -8 -10 -17 -17 -16 -13 -17 -12 -4 4 13 16 21 21 21 13z m177 -37 c36
-34 53 -79 53 -144 0 -104 -45 -165 -127 -172 -93 -8 -146 53 -147 167 -1 77
22 133 68 162 42 26 117 20 153 -13z m57 8 c4 4 4 -1 0 -11 -5 -14 -4 -17 4
-12 7 4 12 3 12 -3 0 -24 -19 -18 -30 9 -7 16 -17 27 -23 23 -6 -4 -7 -1 -2 7
6 10 11 10 20 -3 7 -9 15 -14 19 -10z m-286 -42 c-6 -14 -13 -23 -15 -21 -5 5
15 46 22 46 3 0 -1 -11 -7 -25z m314 -47 c-7 -7 -12 -8 -12 -2 0 14 12 26 19
19 2 -3 -1 -11 -7 -17z m-332 -112 c0 -3 -4 -8 -10 -11 -5 -3 -10 -1 -10 4 0
6 5 11 10 11 6 0 10 -2 10 -4z m317 -69 c-16 -30 -49 -67 -58 -67 -5 0 3 11
16 24 13 13 27 36 31 50 3 14 10 23 15 20 5 -2 3 -15 -4 -27z m-252 -46 c21
-15 22 -20 9 -25 -8 -3 -13 -2 -10 3 3 4 -10 22 -29 39 -19 16 -35 36 -35 42
0 7 9 1 20 -13 12 -15 32 -35 45 -46z m75 -35 c0 -2 -7 -7 -16 -10 -8 -3 -12
-2 -9 4 6 10 25 14 25 6z"/>
<path d="M3630 2601 c0 -6 4 -13 10 -16 6 -3 7 1 4 9 -7 18 -14 21 -14 7z"/>
<path d="M3770 2375 l0 -235 35 0 35 0 0 106 0 106 100 -4 100 -4 0 31 0 31
-100 -4 -100 -4 0 76 0 76 110 0 110 0 0 30 0 30 -145 0 -145 0 0 -235z m60
191 c-15 -15 -13 -169 2 -184 10 -10 10 -15 -2 -22 -11 -7 -17 -35 -21 -97 -4
-64 -6 -32 -7 112 -2 194 -1 201 18 201 13 0 16 -4 10 -10z"/>
<path d="M4120 2580 l0 -30 75 0 75 0 0 -205 0 -205 35 0 36 0 -3 205 -3 205
73 0 72 0 0 30 0 30 -180 0 -180 0 0 -30z m210 -5 c0 -3 -5 -14 -12 -24 -12
-19 -12 -19 -30 1 -23 27 -23 28 12 28 17 0 30 -2 30 -5z m-20 -69 c0 -3 -4
-8 -10 -11 -5 -3 -10 -1 -10 4 0 6 5 11 10 11 6 0 10 -2 10 -4z"/>
</g>
</svg>
